<?xml version="1.0" encoding="UTF-8" standalone="no"?>
<!-- Created with Inkscape (http://www.inkscape.org/) -->

<svg
   width="200mm"
   height="200mm"
   viewBox="0 0 200 200"
   version="1.1"
   id="svg5"
   xml:space="preserve"
   inkscape:version="1.2.2 (b0a8486, 2022-12-01)"
   sodipodi:docname="racine.svg"
   xmlns:inkscape="http://www.inkscape.org/namespaces/inkscape"
   xmlns:sodipodi="http://sodipodi.sourceforge.net/DTD/sodipodi-0.dtd"
   xmlns="http://www.w3.org/2000/svg"
   xmlns:svg="http://www.w3.org/2000/svg"><sodipodi:namedview
     id="namedview7"
     pagecolor="#ffffff"
     bordercolor="#000000"
     borderopacity="0.25"
     inkscape:showpageshadow="2"
     inkscape:pageopacity="0.0"
     inkscape:pagecheckerboard="0"
     inkscape:deskcolor="#d1d1d1"
     inkscape:document-units="mm"
     showgrid="false"
     inkscape:zoom="0.56359373"
     inkscape:cx="255.5032"
     inkscape:cy="412.5312"
     inkscape:window-width="1440"
     inkscape:window-height="855"
     inkscape:window-x="0"
     inkscape:window-y="23"
     inkscape:window-maximized="1"
     inkscape:current-layer="layer1" /><defs
     id="defs2"><inkscape:path-effect
       effect="bspline"
       id="path-effect2036"
       is_visible="true"
       lpeversion="1"
       weight="25"
       steps="2"
       helper_size="0"
       apply_no_weight="true"
       apply_with_weight="true"
       only_selected="false" /><inkscape:path-effect
       effect="bspline"
       id="path-effect1897"
       is_visible="true"
       lpeversion="1"
       weight="40.4333"
       steps="2"
       helper_size="0"
       apply_no_weight="true"
       apply_with_weight="true"
       only_selected="false" /><inkscape:path-effect
       effect="bspline"
       id="path-effect1835"
       is_visible="true"
       lpeversion="1"
       weight="25"
       steps="2"
       helper_size="0"
       apply_no_weight="true"
       apply_with_weight="true"
       only_selected="false" /></defs><g
     inkscape:label="Calque 1"
     inkscape:groupmode="layer"
     id="layer1"><path
       style="fill:#00821e;fill-opacity:1;stroke:none;stroke-width:1.66033;stroke-linejoin:bevel;stroke-dasharray:none;stroke-opacity:1"
       d="M 95.700517,40.011364 C 93.015207,20.711712 71.663025,8.4223907 71.663025,8.4223907 c 0,0 1.905493,20.4038253 24.037492,31.5889733 z"
       id="path1923-6"
       sodipodi:nodetypes="cac" /><path
       style="fill:#00821e;fill-opacity:1;stroke:none;stroke-width:1.51391;stroke-linejoin:bevel;stroke-dasharray:none;stroke-opacity:1"
       d="m 104.68984,32.01437 c 20.36138,-6.045085 23.25181,-24.4801249 23.25181,-24.4801249 0,0 -18.77459,5.0444549 -23.25181,24.4801249 z"
       id="path1923"
       sodipodi:nodetypes="cac" /><circle
       style="fill:#1b51ff;fill-opacity:1;stroke:#000000;stroke-width:4;stroke-dasharray:none;stroke-opacity:1"
       id="path277"
       cx="98.767319"
       cy="116.60932"
       r="70.455971" /><path
       id="path1010"
       style="fill:#000000;fill-opacity:1;stroke:none;stroke-width:0.382651;stroke-opacity:1"
       d="M 100.31958,9.9985187 C 99.547957,9.75815 98.197945,13.41189 97.357884,17.995246 c -0.840061,4.583357 -2.847794,19.249317 -3.476027,24.791673 -0.628233,5.542357 -1.131912,13.031887 -1.341962,15.674938 -0.210049,2.643051 -0.545694,5.715174 -1.217802,7.432668 -0.672107,1.717495 -3.023573,5.511457 -4.240923,6.939729 -1.217349,1.428272 -3.736779,3.349467 -6.171671,4.021882 -2.434892,0.672414 -9.657017,1.440822 -12.512205,1.537047 -2.855187,0.09623 -7.05435,-0.287804 -9.154235,0.04823 -2.099885,0.336037 -6.298697,2.065042 -8.692195,3.121648 -2.393499,1.056606 -7.76851,3.554019 -8.775763,4.322915 -1.007253,0.768896 0.336676,1.345115 2.351824,0.960429 2.015147,-0.384687 8.733386,-2.497721 11.210959,-3.122012 2.477572,-0.624292 5.668962,-1.00867 5.37441,-3.9e-5 -0.294552,1.008632 -4.661792,5.42724 -7.390889,7.396258 -2.729097,1.969018 -9.279259,5.427027 -10.202523,6.339757 -0.923265,0.912729 1.931974,1.10492 3.779137,0.67248 1.847164,-0.43244 6.38213,-2.353634 8.691272,-3.842397 2.309141,-1.488763 7.011839,-5.52299 9.699745,-6.627635 2.687906,-1.104644 8.734531,-1.489023 9.027739,0.528434 0.293209,2.017456 -4.577568,10.470644 -8.818086,13.736196 -4.240517,3.26556 -16.333765,7.87601 -20.743018,10.32558 -4.409253,2.44958 -9.951643,7.63694 -9.783468,8.02113 0.168175,0.38419 6.38253,-3.26601 10.329886,-4.65885 3.947355,-1.39283 13.521179,-3.31402 15.703973,-3.12139 2.182794,0.19263 1.342753,2.88223 0.12505,4.75493 -1.217703,1.87271 -5.248787,6.67535 -6.718501,9.36531 -1.469715,2.68996 -3.317181,8.64574 -3.526751,11.0476 -0.20957,2.40187 0.798201,6.05207 1.175824,5.90771 0.377624,-0.14436 0.881509,-4.37112 1.511297,-6.58069 0.629788,-2.20957 2.645327,-6.82001 3.989106,-8.88547 1.343779,-2.06545 4.702898,-5.71565 5.12274,-4.9468 0.419842,0.76885 -1.259544,7.49269 -1.427194,10.61484 -0.167651,3.12215 0.84012,8.88573 1.007944,9.22193 0.167824,0.33619 -0.168333,-4.08243 0.125369,-5.81204 0.293703,-1.72962 1.805359,-4.22738 2.39333,-6.58044 0.587972,-2.35305 1.428014,-9.26908 2.015792,-12.24694 0.587777,-2.97787 2.099083,-7.97269 3.988626,-11.14293 1.889542,-3.17025 7.936172,-10.855034 10.791603,-13.977012 2.855432,-3.121979 8.230093,-7.924615 8.187989,-6.483432 -0.0421,1.441183 -5.584493,12.007405 -6.717945,17.242954 -1.133451,5.23556 -0.125681,15.60959 -0.209876,20.46027 -0.0842,4.85068 -1.428122,13.88008 -2.435948,17.72215 -1.007826,3.84207 -3.694984,10.18188 -4.996623,12.9675 -1.301639,2.78562 -3.821065,7.5886 -2.813224,6.77197 1.007841,-0.81663 7.558354,-8.88544 9.531839,-12.72728 1.973486,-3.84184 3.317064,-11.14223 3.820914,-15.17655 0.503851,-4.03432 1.175466,-12.87154 1.343417,-16.32958 0.167951,-3.45805 0.167951,-8.45322 0.714174,-8.30903 0.546224,0.14419 2.729847,5.71559 3.107358,8.26089 0.377511,2.5453 -0.294453,7.15609 -0.168088,9.07753 0.126365,1.92145 1.302218,4.99544 2.015972,7.685 0.713755,2.68957 2.393492,10.37401 2.855161,11.14228 0.461669,0.76827 0.629394,-3.84252 0.251696,-6.72408 -0.377697,-2.88157 -2.057084,-9.79759 -2.267327,-12.2474 -0.210243,-2.44981 0.629449,-5.33159 2.057686,-4.08253 1.428237,1.24905 6.299018,9.12566 6.928648,9.31778 0.62964,0.19213 -1.72172,-6.91609 -3.23321,-10.42215 -1.511493,-3.50606 -5.20677,-10.42208 -6.089016,-13.83219 -0.882246,-3.4101 -0.714166,-10.133945 0.587551,-13.208375 1.301716,-3.07443 6.340565,-8.645823 8.230795,-9.317539 1.89023,-0.671716 4.40966,2.21007 4.61883,4.467164 0.20917,2.257094 -1.47056,8.404704 -2.18442,11.62265 -0.71387,3.21795 -1.88972,9.94179 -1.84694,11.6222 0.0428,1.68041 1.38672,1.68041 2.05782,-2e-5 0.6711,-1.68043 2.01468,-8.40427 2.85443,-10.99807 0.83976,-2.593795 2.8553,-6.243999 3.69535,-5.282947 0.84005,0.961052 2.18362,8.453297 1.72148,12.871557 -0.46214,4.41826 -3.65317,14.60043 -4.66088,18.9232 -1.00771,4.32277 -1.84776,11.43097 -2.56172,14.4565 -0.71397,3.02552 -2.72951,8.02034 -3.69523,11.52657 -0.96571,3.50623 -2.813177,12.53563 -2.813182,14.07219 -4e-6,1.53656 1.847462,-1.34523 2.561302,-3.98638 0.71384,-2.64115 1.72161,-10.32558 2.47757,-12.67956 0.75596,-2.35399 2.7715,-4.08299 3.48554,-3.6499 0.71403,0.43308 1.55407,3.89109 2.47804,6.48463 0.92396,2.59353 3.77919,9.50955 3.82096,8.11667 0.0418,-1.39287 -2.64574,-13.88029 -2.89797,-18.58733 -0.25224,-4.70704 1.42749,-11.04649 2.56198,-11.81464 1.13449,-0.76816 3.98974,2.49767 5.62705,5.71562 1.63731,3.21796 5.33259,12.82359 5.6264,12.19921 0.29381,-0.62439 -2.22561,-12.72743 -3.73677,-16.66583 -1.51115,-3.93841 -5.03835,-7.58861 -5.1232,-10.4227 -0.0848,-2.8341 3.1062,-10.51887 4.99654,-11.19089 1.89034,-0.67202 6.25758,4.32315 8.6509,7.63718 2.39333,3.31403 7.59991,11.57467 10.45546,14.45601 2.85555,2.88135 9.0699,6.14751 9.27977,5.95556 0.20987,-0.19196 -5.16479,-4.22653 -6.92864,-6.05139 -1.76386,-1.82486 -3.44325,-5.09069 -4.49298,-7.25194 -1.04974,-2.16125 -3.56916,-7.54045 -4.61901,-9.94186 -1.04985,-2.40141 -2.72958,-6.62782 -4.19887,-8.74117 -1.46928,-2.11335 -5.6681,-6.33977 -7.34809,-9.509547 -1.67999,-3.169773 -4.19942,-11.62296 -4.40888,-13.640788 -0.20946,-2.017827 1.46993,-1.633448 3.40142,-0.528457 1.93149,1.10499 7.97812,5.139221 10.3712,7.87707 2.39309,2.737849 5.92028,9.653872 8.56594,13.159802 2.64566,3.50593 9.70006,10.61414 10.74958,11.2387 1.04952,0.62455 -1.80607,-3.98589 -3.48558,-6.24332 -1.67951,-2.25743 -5.54251,-6.67639 -6.29809,-7.73362 -0.75558,-1.05723 0.0845,-0.86504 1.80607,-0.19248 1.72161,0.67255 7.76789,3.16998 11.00095,3.9382 3.23305,0.76821 10.11936,1.34478 10.20349,0.91275 0.0841,-0.43203 -6.46603,-2.7376 -9.53128,-4.03423 -3.06524,-1.29664 -8.77606,-4.178079 -11.16968,-5.954836 -2.39362,-1.776756 -6.25663,-6.00352 -7.72642,-7.876583 -1.4698,-1.873064 -3.48534,-5.138881 -5.16458,-6.580051 -1.67924,-1.441169 -6.38194,-3.938584 -9.1112,-5.331443 -2.72926,-1.392859 -8.94376,-4.46684 -10.66628,-8.550859 -1.72252,-4.084019 -2.3943,-17.336122 -3.09468,-24.114775 -0.70037,-6.778652 -2.82882,-20.628304 -3.79505,-25.247968 -0.96624,-4.619665 -2.69948,-9.233068 -3.47111,-9.4734363 z"
       sodipodi:nodetypes="ccccccccccccccccccccccccccccccccccccccccccccccccccccccccccccccccccccccccccccccccccccccccccccccccccccccccccccccc"
       inkscape:path-effect="#path-effect2036"
       inkscape:original-d="m 100.2236,7.9295551 c -0.675328,1.8287114 -2.025338,5.4824519 -2.701154,7.3105389 -1.004328,7.338549 -3.012061,22.004509 -4.016795,29.341631 -0.25165,3.747576 -0.75533,11.237106 -1.00777,14.985177 -0.16764,1.538049 -0.50328,4.610173 -0.67162,6.147262 -1.17585,1.898119 -3.52732,5.692079 -4.70293,7.587921 -1.25836,0.961949 -3.77779,2.883144 -5.038857,3.842388 -3.60971,0.385556 -10.831835,1.153965 -14.44425,1.536816 -2.098228,-0.190662 -6.297391,-0.574691 -8.398324,-0.768058 -2.098054,0.865855 -6.296866,2.594859 -8.397625,3.45801 -2.686153,1.250058 -8.061164,3.74747 -10.750022,4.994825 0.673316,0.289461 2.017244,0.865681 2.687855,1.152438 3.360473,-1.055166 10.078712,-3.1682 13.43648,-4.226069 1.597048,-0.190837 4.788438,-0.575216 6.382781,-0.768757 -2.182267,2.210655 -6.549507,6.629263 -8.734479,8.837214 -3.273729,1.730358 -9.82389,5.188368 -13.100323,6.916018 1.428969,0.0974 4.284204,0.28964 5.710469,0.38438 2.268837,-0.95925 6.803805,-2.88044 9.069937,-3.84239 2.352701,-2.01576 7.055398,-6.049988 9.405396,-8.068455 3.024664,-0.190836 9.071289,-0.575216 12.09325,-0.768757 -2.434036,4.227944 -7.304812,12.681132 -9.741552,16.906372 -6.045273,2.30658 -18.138523,6.91703 -24.186501,9.22091 -2.769843,2.59503 -8.312233,7.78239 -11.084781,10.37472 3.10853,-1.82375 9.322885,-5.47395 12.428709,-7.3004 4.788264,-0.95924 14.362087,-2.88044 19.147646,-3.84239 -0.418668,1.34615 -1.258711,4.03575 -1.680084,5.37921 -2.014189,2.40267 -6.045273,7.20531 -8.062166,9.60528 -0.922379,2.97923 -2.769844,8.93501 -3.694927,11.91154 0.505237,1.82645 1.513008,5.47665 2.015541,7.3004 0.253294,-2.11204 0.75718,-6.3388 1.007771,-8.45353 1.009123,-2.30388 3.024665,-6.91432 4.031084,-9.2209 1.680912,-1.82375 5.040031,-5.47395 6.718239,-7.3004 -0.83834,3.36326 -2.517726,10.0871 -3.35877,13.44767 0.505238,2.88314 1.513008,8.64672 2.015541,11.52716 -0.166726,-2.20795 -0.502882,-6.62657 -0.672313,-8.83722 0.75718,-1.24753 2.268836,-3.74529 3.023313,-4.99552 0.421372,-3.45666 1.261415,-10.37269 1.680084,-13.83205 0.757006,-2.49606 2.268313,-7.49088 3.022615,-9.98965 3.024664,-3.84103 9.07129,-11.52582 12.093249,-15.36956 2.688684,-2.399967 8.063344,-7.202604 10.749324,-9.605274 -2.76984,5.284462 -8.31223,15.850684 -11.08478,21.132444 0.505237,5.18838 1.513008,15.56241 2.01554,20.74806 -0.67061,4.51606 -2.014538,13.54546 -2.687854,18.05881 -1.342226,3.17125 -4.029382,9.51106 -5.374312,12.67961 -1.258361,2.40285 -3.777788,7.20583 -5.038855,9.60597 3.276608,-4.03305 9.827119,-12.10186 13.101021,-16.13761 0.67314,-3.64885 2.01672,-10.94924 2.68716,-14.6008 0.33716,-4.41725 1.00877,-13.25447 1.34323,-17.67443 10e-4,-2.49624 10e-4,-7.49141 0,-9.99035 1.09316,2.78704 3.27678,8.35844 4.36724,11.14278 -0.33463,2.30676 -1.0066,6.91755 -1.34393,9.2216 0.58928,1.53834 1.76512,4.61233 2.3517,6.14796 0.84122,3.84356 2.52095,11.528 3.35947,15.36886 0.0852,-2.30405 0.25294,-6.91484 0.33545,-9.2216 -0.83834,-3.45665 -2.51772,-10.37268 -3.35877,-13.83204 0.4212,-1.43955 1.26089,-4.32133 1.67939,-5.76358 2.43674,3.93966 7.307519,11.81627 9.741559,15.75323 -1.17433,-3.55275 -3.52568,-10.66097 -4.702708,-14.21642 -1.84628,-3.45666 -5.541561,-10.37268 -7.390551,-13.83204 0.0854,-3.36056 0.25347,-10.0844 0.33616,-13.44767 2.52078,-2.784341 7.559629,-8.355735 10.077699,-11.142784 1.26107,1.442248 3.78049,4.32404 5.03886,5.763583 -0.83852,3.075161 -2.51825,9.222771 -3.35946,12.295221 -0.58658,3.36328 -1.76243,10.08712 -2.35171,13.44767 0.67331,0.001 2.01724,0.001 2.68786,0 0.67314,-3.36055 2.01672,-10.08439 2.68716,-13.44767 1.00911,-1.82374 3.02466,-5.47394 4.03108,-7.3004 0.67315,3.74748 2.01671,11.23973 2.68715,14.9845 -1.59417,5.09245 -4.78521,15.27462 -6.38208,20.36437 -0.41868,3.55545 -1.25872,10.66366 -1.68009,14.21642 -1.00641,2.49877 -3.02195,7.49359 -4.03108,9.98965 -0.92238,4.51606 -2.769838,13.54546 -3.694928,18.05881 0.92509,-1.43954 2.772548,-4.32133 3.694928,-5.76358 0.50524,-3.84086 1.513,-11.52529 2.01554,-15.36886 1.00912,-0.86315 3.02466,-2.59215 4.03109,-3.45801 0.42136,1.73035 1.26141,5.18836 1.68008,6.91602 1.42897,3.45936 4.2842,10.37538 5.71047,13.83204 -1.3424,-6.24235 -4.0299,-18.72977 -5.37501,-24.97483 0.84122,-3.16838 2.52095,-9.50783 3.35946,-12.6789 1.42897,1.63426 4.28422,4.90008 5.71048,6.53164 1.84899,4.80416 5.54426,14.40979 7.39055,19.21125 -1.25836,-6.05016 -3.77778,-18.1532 -5.03885,-24.20607 -1.76225,-1.82375 -5.28945,-5.47395 -7.0544,-7.3004 1.59687,-3.84104 4.78792,-11.52581 6.38208,-15.36955 2.18498,2.49893 6.55222,7.4941 8.73448,9.99034 2.60465,4.13168 7.81123,12.39232 10.41317,16.5213 3.10853,1.63444 9.32288,4.90061 12.42871,6.53234 -2.68598,-2.01593 -8.06064,-6.05051 -10.74933,-8.06915 -0.83834,-1.63156 -2.51773,-4.89739 -3.35877,-6.53165 -1.25836,-2.68825 -3.77778,-8.06745 -5.03885,-10.75841 -0.83852,-2.11186 -2.51825,-6.33827 -3.35947,-8.45284 -2.09805,-2.11185 -6.29686,-6.33828 -8.39762,-8.45284 -1.25836,-4.22524 -3.77778,-12.678428 -5.03885,-16.906372 0.84104,0.193541 2.52043,0.57792 3.35877,0.768757 3.02466,2.018467 9.07129,6.052695 12.09325,8.068457 1.76494,3.459358 5.29214,10.375378 7.05438,13.832048 3.52855,3.55546 10.58295,10.66367 14.1088,14.21642 -1.42644,-2.30387 -4.28203,-6.91431 -5.71117,-9.22089 -1.93016,-2.20813 -5.79315,-6.62709 -7.72601,-8.83793 0.42138,0.0974 1.26142,0.28964 1.68009,0.38438 3.02449,1.25006 9.07077,3.74748 12.09255,4.99484 3.44451,0.28963 10.33082,0.8662 13.77263,1.15313 -3.27373,-1.15143 -9.82389,-3.457 -13.10031,-4.61115 -2.85406,-1.43937 -8.56488,-4.32081 -11.42164,-5.76289 -1.93015,-2.11203 -5.79315,-6.338796 -7.72601,-8.453532 -1.00643,-1.631558 -3.02197,-4.897377 -4.03109,-6.53164 -2.34999,-1.247355 -7.05269,-3.744767 -9.40539,-4.994827 -3.10563,-1.536008 -9.32013,-4.609992 -12.429,-6.14796 -0.33576,-6.630229 -1.00753,-19.882333 -1.34393,-26.511644 -1.06449,-6.928009 -3.19293,-20.777661 -4.25827,-27.708329 -0.8672,-2.308683 -2.60045,-6.922083 -3.4682,-9.2313629 z" /></g></svg>
