<?xml version="1.0" encoding="UTF-8" standalone="no"?>
<!-- Created with Inkscape (http://www.inkscape.org/) -->

<svg
   width="200mm"
   height="200mm"
   viewBox="0 0 200 200"
   version="1.1"
   id="svg5"
   xml:space="preserve"
   inkscape:version="1.2.2 (b0a8486, 2022-12-01)"
   sodipodi:docname="racine-icon.svg"
   xmlns:inkscape="http://www.inkscape.org/namespaces/inkscape"
   xmlns:sodipodi="http://sodipodi.sourceforge.net/DTD/sodipodi-0.dtd"
   xmlns="http://www.w3.org/2000/svg"
   xmlns:svg="http://www.w3.org/2000/svg"><sodipodi:namedview
     id="namedview7"
     pagecolor="#ffffff"
     bordercolor="#000000"
     borderopacity="0.25"
     inkscape:showpageshadow="2"
     inkscape:pageopacity="0.0"
     inkscape:pagecheckerboard="0"
     inkscape:deskcolor="#d1d1d1"
     inkscape:document-units="mm"
     showgrid="false"
     inkscape:zoom="0.56359373"
     inkscape:cx="165.89965"
     inkscape:cy="412.5312"
     inkscape:window-width="1440"
     inkscape:window-height="855"
     inkscape:window-x="0"
     inkscape:window-y="23"
     inkscape:window-maximized="1"
     inkscape:current-layer="layer1" /><defs
     id="defs2"><inkscape:path-effect
       effect="bspline"
       id="path-effect2036"
       is_visible="true"
       lpeversion="1"
       weight="25"
       steps="2"
       helper_size="0"
       apply_no_weight="true"
       apply_with_weight="true"
       only_selected="false" /><inkscape:path-effect
       effect="bspline"
       id="path-effect1897"
       is_visible="true"
       lpeversion="1"
       weight="40.4333"
       steps="2"
       helper_size="0"
       apply_no_weight="true"
       apply_with_weight="true"
       only_selected="false" /><inkscape:path-effect
       effect="bspline"
       id="path-effect1835"
       is_visible="true"
       lpeversion="1"
       weight="25"
       steps="2"
       helper_size="0"
       apply_no_weight="true"
       apply_with_weight="true"
       only_selected="false" /></defs><g
     inkscape:label="Calque 1"
     inkscape:groupmode="layer"
     id="layer1"><circle
       style="fill:none;fill-opacity:1;stroke:#ffffff;stroke-width:10;stroke-dasharray:none;stroke-opacity:1"
       id="path277"
       cx="100"
       cy="100"
       r="89.460526" /><path
       id="path1010"
       style="fill:#ffffff;fill-opacity:1;stroke:none;stroke-width:0.485866;stroke-opacity:1"
       d="m 95.452423,10.96877 c -2.453371,2.333551 -3.092906,11.843282 -3.359612,15.199261 -0.266707,3.355978 -0.692888,7.256766 -1.546289,9.437532 -0.8534,2.180766 -3.839142,6.998096 -5.384856,8.811626 -1.545714,1.81353 -4.744727,4.252942 -7.836398,5.106731 -3.091672,0.853789 -12.26187,1.829465 -15.887205,1.951646 -3.625335,0.122181 -8.957168,-0.365435 -11.623469,0.06124 -2.666301,0.426679 -7.997686,2.622059 -11.036798,3.963671 -3.039112,1.341611 -9.863961,4.512667 -11.142908,5.488963 -1.278946,0.976295 0.427489,1.707942 2.986196,1.219492 2.558708,-0.488451 11.089102,-3.171448 14.234966,-3.964134 3.145865,-0.792685 7.19809,-1.280745 6.824086,-4.8e-5 -0.374004,1.280696 -5.919248,6.891164 -9.384483,9.391299 -3.465234,2.500135 -11.782215,6.890895 -12.954518,8.049822 -1.172303,1.158926 2.453099,1.402957 4.79851,0.853872 2.345411,-0.549085 8.103624,-2.988496 11.035625,-4.878832 2.932001,-1.890337 8.90319,-7.012744 12.316122,-8.415351 3.412933,-1.402607 11.090555,-1.890667 11.462853,0.670972 0.372297,2.561638 -5.812307,13.29496 -11.196648,17.441355 -5.384341,4.146395 -20.739581,10.000455 -26.338171,13.110766 -5.598589,3.11031 -12.63596,9.696893 -12.422425,10.184713 0.213534,0.48782 8.104126,-4.14697 13.11623,-5.915501 5.012103,-1.76853 17.16834,-4.207939 19.939912,-3.96335 2.771572,0.24459 1.704944,3.659668 0.158781,6.037511 -1.546162,2.37785 -6.664572,8.47593 -8.530724,11.89147 -1.866152,3.41554 -4.211948,10.97781 -4.478047,14.02755 -0.266099,3.04974 1.013503,7.68453 1.492986,7.50123 0.479484,-0.1833 1.119283,-5.55016 1.918948,-8.35574 0.799666,-2.80557 3.35887,-8.65963 5.065113,-11.28221 1.706243,-2.62258 5.971444,-7.25737 6.504534,-6.28113 0.533089,0.97624 -1.599289,9.51375 -1.812161,13.47805 -0.212872,3.96431 1.066731,11.28254 1.279823,11.70942 0.213092,0.42688 -0.213739,-5.1836 0.159187,-7.37976 0.372926,-2.19616 2.292331,-5.36766 3.038899,-8.35542 0.746568,-2.98776 1.813201,-11.76929 2.559523,-15.55039 0.746323,-3.781101 2.665283,-10.123209 5.064505,-14.148586 2.399222,-4.025377 10.07685,-13.783033 13.702496,-17.747123 3.625645,-3.96409 10.450051,-10.062175 10.396591,-8.232252 -0.05346,1.829922 -7.090839,15.246243 -8.530024,21.894017 -1.439184,6.647774 -0.159582,19.820054 -0.266488,25.979144 -0.106905,6.15909 -1.813337,17.62405 -3.093011,22.50247 -1.279674,4.87841 -4.691658,12.9283 -6.344395,16.4653 -1.652738,3.537 -4.851749,9.63553 -3.572056,8.59862 1.279693,-1.0369 9.59712,-11.28217 12.102927,-16.1603 2.505806,-4.87812 4.211797,-14.1477 4.851555,-19.27023 0.639758,-5.12252 1.492532,-16.34345 1.705785,-20.73426 0.213254,-4.390801 0.213254,-10.733348 0.906813,-10.550265 0.693559,0.183083 3.466184,7.257294 3.945524,10.489155 0.47934,3.23186 -0.373875,9.08634 -0.213427,11.52607 0.160449,2.43973 1.65347,6.34288 2.55975,9.75792 0.90628,3.41504 3.039105,13.17226 3.625305,14.14776 0.5862,0.97551 0.799171,-4.87899 0.319594,-8.53781 -0.479576,-3.65882 -2.611959,-12.44036 -2.878913,-15.55097 -0.266954,-3.11062 0.799236,-6.76971 2.612722,-5.18374 1.813486,1.58598 7.998082,11.58719 8.797562,11.83113 0.79947,0.24395 -2.18612,-8.78161 -4.10532,-13.23338 C 99.078302,101.606 94.386269,92.824477 93.266046,88.494537 92.145824,84.164596 92.359239,75.62709 94.012079,71.723373 95.664918,67.819656 102.06293,60.74546 104.46303,59.892554 c 2.4001,-0.852907 5.5991,2.806209 5.86469,5.672121 0.26559,2.865913 -1.86722,10.671761 -2.77364,14.757707 -0.90643,4.085947 -2.39945,12.62345 -2.34512,14.757129 0.0543,2.133678 1.76076,2.133678 2.61288,-2.7e-5 0.85213,-2.133705 2.55812,-10.671209 3.62438,-13.964646 1.06627,-3.293438 3.62548,-7.928238 4.69212,-6.707954 1.06664,1.220283 2.77262,10.733463 2.18583,16.343488 -0.5868,5.610026 -4.63857,18.538698 -5.9181,24.027468 -1.27952,5.48878 -2.34616,14.51434 -3.25271,18.35595 -0.90655,3.84162 -3.46575,10.18372 -4.69196,14.63571 -1.2262,4.45199 -3.572,15.91695 -3.572,17.86797 0,1.95103 2.34578,-1.70808 3.25218,-5.06165 0.90639,-3.35356 2.186,-13.11077 3.14587,-16.0997 0.95987,-2.98893 3.51907,-5.18432 4.42571,-4.63442 0.90663,0.54991 1.97327,4.94069 3.14646,8.23379 1.17319,3.2931 4.79858,12.07461 4.85161,10.30602 0.053,-1.76859 -3.35939,-17.6243 -3.67966,-23.60101 -0.32027,-5.9767 1.81254,-14.02613 3.25304,-15.00149 1.44051,-0.97535 5.06592,3.17139 7.14487,7.25735 2.07896,4.08595 6.77098,16.28257 7.14405,15.48977 0.37306,-0.7928 -2.82595,-16.16047 -4.74472,-21.16121 -1.91877,-5.00074 -6.39738,-9.63552 -6.50511,-13.23408 -0.10772,-3.59856 3.94405,-13.356186 6.34429,-14.209475 2.40023,-0.853288 7.94547,5.489264 10.98437,9.697205 3.03889,4.20794 9.64988,14.69677 13.27567,18.35532 3.6258,3.65855 11.51639,7.80572 11.78287,7.56198 0.26648,-0.24373 -6.55792,-5.36657 -8.79755,-7.68366 -2.23964,-2.3171 -4.37202,-6.46385 -5.70491,-9.20806 -1.33288,-2.74421 -4.53189,-9.57438 -5.86492,-12.62354 -1.33304,-3.049155 -3.46585,-8.415585 -5.33145,-11.09898 -1.86561,-2.683395 -7.197,-8.049838 -9.33015,-12.074614 -2.13315,-4.024777 -5.33215,-14.758099 -5.59812,-17.320211 -0.26596,-2.562113 1.86644,-2.074048 4.31892,-0.671002 2.45248,1.403045 10.1301,6.525458 13.16869,10.001802 3.03858,3.476344 7.51719,12.25788 10.87648,16.709485 3.35929,4.451605 12.31653,13.477163 13.64915,14.270186 1.33261,0.793024 -2.29323,-5.061034 -4.42577,-7.927375 -2.13254,-2.866341 -7.03753,-8.477243 -7.99692,-9.819653 -0.95939,-1.34241 0.10725,-1.098379 2.29324,-0.244406 2.18598,0.853973 9.86317,4.025042 13.9683,5.000477 4.10512,0.975435 12.84893,1.707521 12.95575,1.158962 0.10682,-0.548559 -8.21016,-3.476035 -12.10222,-5.122418 -3.89206,-1.646383 -11.14329,-5.305054 -14.18256,-7.561068 -3.03927,-2.256015 -7.94426,-7.622887 -9.81051,-10.001186 -1.86626,-2.378299 -4.42547,-6.525022 -6.55766,-8.354927 -2.13218,-1.829905 -8.10338,-5.000967 -11.56882,-6.769532 -3.46544,-1.768564 -11.35622,-5.671712 -13.54337,-10.857341 -2.18715,-5.18563 -3.04012,-22.012312 -5.54627,-26.266702 C 107.07408,8.8177172 97.905794,8.635219 95.452423,10.96877 Z"
       sodipodi:nodetypes="cccccccccccccccccccccccccccccccccccccccccccccccccccccccccccccccccccccccccccccccccccccccccccccccccccccccccccc"
       inkscape:path-effect="#path-effect2036"
       inkscape:original-d="M 93.319058,8.5439182 C 92.99953,13.302353 92.359993,22.812084 92.039465,27.571147 c -0.21286,1.952917 -0.639032,5.853706 -0.852782,7.805404 -1.493024,2.410111 -4.478766,7.227441 -5.971485,9.63466 -1.597786,1.221422 -4.796799,3.660835 -6.398022,4.878822 -4.58338,0.489554 -13.753578,1.465232 -18.340394,1.951351 -2.664196,-0.24209 -7.996028,-0.729706 -10.663659,-0.97523 -2.663977,1.099407 -7.995362,3.294787 -10.662773,4.390762 -3.410706,1.587243 -10.235555,4.758299 -13.649697,6.342112 0.854934,0.367539 2.561369,1.099187 3.412869,1.463293 4.266915,-1.339784 12.797309,-4.022781 17.060791,-5.365995 2.02783,-0.242314 6.080055,-0.730373 8.10445,-0.976119 -2.770904,2.80695 -8.316148,8.417418 -11.090488,11.220935 -4.156773,2.197098 -12.473752,6.587861 -16.63396,8.781521 1.814414,0.123672 5.439811,0.367767 7.250792,0.488061 2.880825,-1.217994 8.63904,-3.657401 11.516432,-4.878824 2.987309,-2.559484 8.958498,-7.68189 11.942375,-10.244812 3.840527,-0.242311 11.518149,-0.730373 15.355243,-0.976119 -3.090585,5.368375 -9.275187,16.101698 -12.369205,21.46664 -7.675906,2.928749 -23.031147,8.782808 -30.710487,11.708122 -3.516972,3.295005 -10.554348,9.881579 -14.074753,13.173169 3.947014,-2.31568 11.837609,-6.95047 15.781188,-9.269592 6.079833,-1.217979 18.236068,-3.657399 24.312466,-4.878817 -0.531597,1.709259 -1.59823,5.124336 -2.133263,6.830179 -2.557489,3.05076 -7.675905,9.14884 -10.236828,12.19618 -1.171179,3.78283 -3.516973,11.3451 -4.691584,15.12451 0.641519,2.31911 1.921122,6.9539 2.559207,9.26959 0.321615,-2.68174 0.961418,-8.0486 1.279603,-10.73376 1.281321,-2.92532 3.840529,-8.77937 5.118415,-11.70812 2.134316,-2.31567 6.399512,-6.95047 8.530394,-9.26958 -1.06447,4.27045 -3.196849,12.80796 -4.264752,17.075 0.641518,3.66083 1.921121,10.97906 2.559205,14.63646 -0.211698,-2.80352 -0.638527,-8.414 -0.85366,-11.22094 0.96142,-1.58404 2.880825,-4.75554 3.838811,-6.343 0.535033,-4.38905 1.601665,-13.17058 2.133264,-17.56305 0.961199,-3.169341 2.880161,-9.511448 3.837926,-12.684232 3.840526,-4.877097 11.518149,-14.634757 15.355242,-19.515293 3.41392,-3.047327 10.238327,-9.145411 13.648812,-12.19617 -3.516964,6.709876 -10.554344,20.126195 -14.074754,26.83264 0.641519,6.587876 1.921123,19.760155 2.559206,26.344565 -0.851498,5.73421 -2.557933,17.19917 -3.412866,22.92994 -1.704275,4.02665 -5.116255,12.07654 -6.823962,16.09976 -1.597787,3.05098 -4.796796,9.14951 -6.398019,12.19705 4.16043,-5.12091 12.477852,-15.36618 16.634847,-20.49052 0.854711,-4.63307 2.560703,-13.90265 3.411985,-18.53917 0.428105,-5.60875 1.280872,-16.82968 1.705549,-22.44186 0.0013,-3.169571 0.0013,-9.512118 0,-12.685113 1.388025,3.538806 4.160643,10.613019 5.545242,14.148403 -0.424886,2.92897 -1.27812,8.78345 -1.706435,11.70899 0.748227,1.95328 2.241241,5.85644 2.986038,7.8063 1.068127,4.88029 3.200942,14.63751 4.265641,19.5144 0.108128,-2.92554 0.321176,-8.78004 0.425941,-11.70901 -1.064479,-4.38903 -3.196843,-13.17057 -4.264762,-17.56305 0.534816,-1.82785 1.600999,-5.48695 2.132387,-7.31822 3.094026,5.00233 9.278624,15.00354 12.369214,20.00245 -1.49109,-4.51106 -4.47667,-13.53663 -5.97119,-18.05111 -2.344296,-4.38904 -7.036332,-13.170564 -9.384062,-17.563044 0.108458,-4.267025 0.321835,-12.804532 0.426831,-17.074999 3.200733,-3.53538 9.598741,-10.609583 12.796041,-14.148402 1.60122,1.831275 4.80022,5.490393 6.39801,7.318234 -1.0647,3.904643 -3.19752,11.710489 -4.26563,15.611692 -0.7448,4.27048 -2.23782,12.807984 -2.98605,17.074998 0.85493,0.0011 2.56136,0.0011 3.41288,0 0.85471,-4.267014 2.5607,-12.804518 3.41198,-17.074998 1.2813,-2.315669 3.84052,-6.950463 5.11841,-9.269585 0.85473,4.758313 2.56069,14.271497 3.41197,19.026368 -2.02417,6.466069 -6.07595,19.394736 -8.10356,25.857376 -0.5316,4.51449 -1.59824,13.54005 -2.13327,18.05112 -1.27787,3.17278 -3.83708,9.51488 -5.11841,12.68423 -1.17118,5.7342 -3.51696,17.19916 -4.691583,22.92992 1.174623,-1.82784 3.520403,-5.48695 4.691583,-7.31822 0.64153,-4.87689 1.92111,-14.6341 2.55921,-19.5144 1.28131,-1.09599 3.84053,-3.29136 5.11842,-4.39077 0.53502,2.19708 1.60166,6.58786 2.13326,8.78152 1.81442,4.39248 5.4398,13.174 7.2508,17.56306 -1.70451,-7.92616 -5.11692,-23.78188 -6.82485,-31.71147 1.06813,-4.023 3.20094,-12.07243 4.26563,-16.09887 1.8144,2.07509 5.43983,6.22182 7.2508,8.29347 2.34773,6.10002 7.03975,18.29664 9.38405,24.39323 -1.59779,-7.68211 -4.79679,-23.04978 -6.39802,-30.73533 -2.23759,-2.31569 -6.71619,-6.95048 -8.95722,-9.26959 2.0276,-4.87711 6.07939,-14.634733 8.10356,-19.515276 2.77435,3.172988 8.3196,9.515536 11.09049,12.685106 3.30722,5.24614 9.91821,15.73497 13.22199,20.9777 3.94701,2.0753 11.8376,6.22248 15.78119,8.29434 -3.4105,-2.5597 -10.23489,-7.68255 -13.64883,-10.2457 -1.06446,-2.07165 -3.19686,-6.21839 -4.26475,-8.29347 -1.59779,-3.41336 -4.79679,-10.24353 -6.39802,-13.660344 -1.06469,-2.681507 -3.19751,-8.047934 -4.26563,-10.732878 -2.66398,-2.681493 -7.99536,-8.047947 -10.66278,-10.732881 -1.59777,-5.364941 -4.79677,-16.098264 -6.398,-21.46664 1.06789,0.245746 3.20029,0.733805 4.26475,0.976119 3.84052,2.562921 11.51815,7.685328 15.35524,10.244816 2.241,4.392473 6.71963,13.173997 8.95721,17.563058 4.48032,4.514497 13.43756,13.540052 17.91446,18.0511 -1.8112,-2.92529 -5.43705,-8.779344 -7.25168,-11.708098 -2.4508,-2.803739 -7.35577,-8.414654 -9.81,-11.221839 0.53505,0.123673 1.60167,0.367768 2.13327,0.488063 3.84031,1.587245 11.5175,4.758311 15.35436,6.342131 4.37361,0.367753 13.11742,1.099846 17.4876,1.464171 -4.15676,-1.462013 -12.47374,-4.38948 -16.63394,-5.854946 -3.62391,-1.827622 -10.87514,-5.486291 -14.50248,-7.317353 -2.45078,-2.681722 -7.35576,-8.048601 -9.80999,-10.73376 -1.2779,-2.071648 -3.8371,-6.218378 -5.11843,-8.293462 -2.98385,-1.583813 -8.95505,-4.754867 -11.94237,-6.342115 -3.94332,-1.950326 -11.8341,-5.853476 -15.78155,-7.80629 C 112.93979,34.153157 112.08682,17.326475 111.65968,8.9089954 107.07407,8.8180429 97.905787,8.6355468 93.319058,8.5439182 Z" /></g></svg>
