<?xml version="1.0" encoding="UTF-8" standalone="no"?>
<!-- Created with Inkscape (http://www.inkscape.org/) -->

<svg
   width="200mm"
   height="200mm"
   viewBox="0 0 200 200"
   version="1.1"
   id="svg5"
   xml:space="preserve"
   inkscape:version="1.1.2 (0a00cf5339, 2022-02-04)"
   sodipodi:docname="racine-icon.svg"
   xmlns:inkscape="http://www.inkscape.org/namespaces/inkscape"
   xmlns:sodipodi="http://sodipodi.sourceforge.net/DTD/sodipodi-0.dtd"
   xmlns="http://www.w3.org/2000/svg"
   xmlns:svg="http://www.w3.org/2000/svg"><sodipodi:namedview
     id="namedview7"
     pagecolor="#ffffff"
     bordercolor="#000000"
     borderopacity="0.25"
     inkscape:showpageshadow="2"
     inkscape:pageopacity="0.0"
     inkscape:pagecheckerboard="0"
     inkscape:deskcolor="#d1d1d1"
     inkscape:document-units="mm"
     showgrid="false"
     inkscape:zoom="1.4721832"
     inkscape:cx="366.1229"
     inkscape:cy="390.91601"
     inkscape:window-width="1920"
     inkscape:window-height="1027"
     inkscape:window-x="0"
     inkscape:window-y="0"
     inkscape:window-maximized="1"
     inkscape:current-layer="layer1"
     inkscape:pageshadow="2" /><defs
     id="defs2"><inkscape:path-effect
       effect="bspline"
       id="path-effect2036"
       is_visible="true"
       lpeversion="1"
       weight="25"
       steps="2"
       helper_size="0"
       apply_no_weight="true"
       apply_with_weight="true"
       only_selected="false" /><inkscape:path-effect
       effect="bspline"
       id="path-effect1897"
       is_visible="true"
       lpeversion="1"
       weight="40.4333"
       steps="2"
       helper_size="0"
       apply_no_weight="true"
       apply_with_weight="true"
       only_selected="false" /><inkscape:path-effect
       effect="bspline"
       id="path-effect1835"
       is_visible="true"
       lpeversion="1"
       weight="25"
       steps="2"
       helper_size="0"
       apply_no_weight="true"
       apply_with_weight="true"
       only_selected="false" /></defs><g
     inkscape:label="Calque 1"
     inkscape:groupmode="layer"
     id="layer1"><circle
       style="fill:#1b51ff;fill-opacity:1;stroke:#ffffff;stroke-width:15;stroke-dasharray:none;stroke-opacity:1;stroke-miterlimit:4"
       id="path277"
       cx="100"
       cy="100"
       r="89.460526"
       inkscape:export-filename="/home/holger/racine/app/static/images/path277.png"
       inkscape:export-xdpi="96"
       inkscape:export-ydpi="96" /><path
       id="path1010"
       style="fill:#ffffff;fill-opacity:1;stroke:none;stroke-width:0.485866;stroke-opacity:1"
       d="m 95.452423,10.96877 c -2.453371,2.333551 -3.092906,11.843282 -3.359612,15.199261 -0.266707,3.355978 -0.692888,7.256766 -1.546289,9.437532 -0.8534,2.180766 -3.839142,6.998096 -5.384856,8.811626 -1.545714,1.81353 -4.744727,4.252942 -7.836398,5.106731 -3.091672,0.853789 -12.26187,1.829465 -15.355134,2.683473 -3.093265,0.854008 -6.291822,3.293075 -8.477912,5.305566 -2.18609,2.012491 -7.731334,7.622959 -11.356556,11.39235 -3.625221,3.769391 -12.578798,13.234305 -13.44553,15.134935 -0.866732,1.90063 4.622746,0.02953 7.372049,-1.498597 2.749304,-1.528124 8.250763,-5.766425 11.163428,-8.146424 2.912666,-2.379998 9.059452,-7.659701 12.230033,-9.353404 3.170581,-1.693703 9.700099,-3.185339 9.785497,-0.874492 0.0854,2.310847 -6.099205,13.044169 -8.231623,17.068783 -2.132418,4.024613 -4.477689,9.38986 -7.024085,15.018082 -2.546396,5.628218 -10.375794,22.751818 -12.077844,28.484078 -1.702051,5.73226 -0.671187,11.50862 0.416684,11.26328 1.087871,-0.24534 4.410556,-7.00387 6.257195,-10.31348 1.846639,-3.3096 5.905544,-9.78084 8.497856,-14.35305 2.592313,-4.5722 8.898162,-16.382036 11.63213,-21.789957 2.733968,-5.407922 7.363822,-15.229526 10.227509,-19.209644 2.863686,-3.980118 9.688092,-10.078203 10.72351,-8.28389 1.035418,1.794313 -1.646381,15.065856 -2.593302,21.182624 -0.946921,6.116769 -2.05124,17.301617 -3.247,23.497877 -1.195759,6.19626 -4.873163,19.78875 -6.645468,25.19895 -1.772305,5.4102 -5.184289,13.46009 -6.837026,16.99709 -1.652738,3.537 -4.851749,9.63553 -3.544742,9.41867 1.307006,-0.21687 9.73357,-7.18173 12.854387,-11.31945 3.120818,-4.13771 7.176693,-13.72212 8.971221,-19.40381 1.794528,-5.6817 4.913608,-18.81395 6.09063,-25.81651 1.177022,-7.002562 2.763931,-21.869111 4.034833,-27.498022 1.270902,-5.628912 4.767582,-13.276619 6.657852,-13.338449 1.89026,-0.06183 5.95324,7.336803 6.98245,11.150465 1.02921,3.813661 1.08118,11.661122 0.59401,17.14744 -0.48718,5.486318 -2.48711,19.576216 -3.17097,25.022586 -0.68387,5.44636 -1.41804,13.13089 -2.05376,16.95613 -0.63571,3.82525 -2.44356,11.43618 -3.48198,16.20528 -1.03841,4.76909 -3.38421,16.23405 -3.38421,18.18507 0,1.95103 2.34578,-1.70808 3.97199,-6.35383 1.6262,-4.64575 5.78192,-19.55888 7.00926,-21.45073 1.22734,-1.89186 1.97506,5.46671 3.06861,9.5012 1.09355,4.03448 4.71894,12.81599 5.15247,10.54949 0.43353,-2.2665 -1.45651,-20.11425 -1.54797,-27.33233 -0.0915,-7.21809 1.43293,-18.23601 2.75823,-23.10388 1.3253,-4.86786 5.10288,-13.323728 7.36044,-13.593733 2.25756,-0.270005 7.50443,7.100173 10.4267,11.578553 2.92227,4.47839 9.35618,15.00896 13.05733,18.41171 3.70115,3.40275 12.06262,6.47358 12.88931,5.96181 0.82669,-0.51177 -4.22666,-5.63104 -6.18226,-8.09659 -1.9556,-2.46555 -4.7189,-7.20071 -6.28742,-10.07719 -1.56853,-2.87649 -5.06986,-9.62999 -6.68821,-12.533643 -1.61835,-2.903658 -4.58306,-7.751391 -6.65724,-10.305732 -2.07418,-2.55434 -7.40557,-7.920783 -9.53872,-11.945559 -2.13315,-4.024777 -5.33215,-14.758099 -5.59812,-17.320211 -0.26596,-2.562113 1.86644,-2.074048 3.91331,-0.754842 2.04687,1.319206 8.10027,6.104362 11.40497,9.606518 3.30469,3.502157 10.45993,12.714707 14.22553,17.251749 3.76561,4.537042 11.66536,13.463546 12.50728,13.023766 0.84191,-0.439781 -3.69005,-11.128854 -7.21097,-16.986667 C 155.403,75.809515 145.85929,63.081004 141.9829,59.108391 138.10651,55.135777 132.13531,51.964715 128.66987,50.19615 125.20443,48.427586 117.31365,44.524438 115.1265,39.338809 112.93935,34.153179 112.08638,17.326497 109.58023,13.072107 107.07408,8.8177172 97.905794,8.635219 95.452423,10.96877 Z"
       sodipodi:nodetypes="cccccccccccccccccccccccccccccccccccccccccccccccccccccccccccccccc"
       inkscape:path-effect="#path-effect2036"
       inkscape:original-d="M 93.319058,8.5439182 C 92.99953,13.302353 92.359993,22.812084 92.039465,27.571147 c -0.21286,1.952917 -0.639032,5.853706 -0.852782,7.805404 -1.493024,2.410111 -4.478766,7.227441 -5.971485,9.63466 -1.597786,1.221422 -4.796799,3.660835 -6.398022,4.878822 -4.58338,0.489554 -13.753578,1.465232 -18.340394,1.951351 -1.599688,1.220312 -4.798245,3.659379 -6.398019,4.878823 -2.770904,2.80695 -8.316148,8.417418 -11.090488,11.220935 -4.477559,4.733815 -13.431136,14.198729 -17.913601,18.936643 2.748838,-0.936594 8.238316,-2.807696 10.984973,-3.744255 2.752068,-2.119713 8.253528,-6.358013 11.004494,-8.477815 3.074381,-2.640207 9.221167,-7.91991 12.295982,-10.561474 3.266174,-0.745817 9.795692,-2.237453 13.059034,-2.983272 -3.090585,5.368375 -9.275187,16.101698 -12.369205,21.46664 -1.172531,2.683254 -3.517802,8.048501 -4.691586,10.732882 -3.919008,8.572069 -11.748407,25.695669 -15.668766,34.269009 0.51615,2.89099 1.547014,8.66735 2.062015,11.55433 1.660848,-3.37746 4.983535,-10.13599 6.645408,-13.51714 2.031396,-3.23803 6.090301,-9.70927 8.120688,-12.94707 3.154244,-5.90663 9.460093,-17.716467 12.612935,-23.621993 2.315096,-4.910336 6.94495,-14.73194 9.2597,-19.643192 3.41392,-3.047327 10.238327,-9.145411 13.648812,-12.19617 -1.340959,6.637639 -4.022758,19.909182 -5.364464,26.547368 -0.552154,5.595317 -1.656473,16.780167 -2.20914,22.374787 -1.838829,6.79795 -5.51623,20.39044 -7.35481,27.18499 -1.704275,4.02665 -5.116255,12.07654 -6.823962,16.09976 -1.597787,3.05098 -4.796796,9.14951 -6.398019,12.19705 4.213417,-3.48206 12.63998,-10.44692 16.853139,-13.92973 2.028558,-4.79278 6.084437,-14.37718 8.112905,-19.17153 1.560576,-6.56911 4.679655,-19.70136 6.239684,-26.27092 0.793996,-7.435601 2.380905,-22.30215 3.174165,-29.736345 1.748574,-3.823512 5.245254,-11.471221 6.993374,-15.29543 2.03218,3.700354 6.09517,11.098984 8.12748,14.800021 0.0263,3.926337 0.0782,11.773799 0.10398,15.698787 -1.00005,7.047691 -2.99998,21.137587 -4.0007,28.185717 -0.36702,3.84459 -1.1012,11.52912 -1.46873,15.37302 -0.90387,3.80663 -2.71172,11.41756 -3.6157,15.22189 -1.17118,5.7342 -3.51696,17.19916 -4.691583,22.92992 1.174623,-1.82784 3.520403,-5.48695 4.691583,-7.31822 2.07955,-7.46142 6.23526,-22.37455 8.31546,-29.84073 0.37441,3.68236 1.12213,11.04093 1.49543,14.71708 1.81442,4.39248 5.4398,13.174 7.2508,17.56306 -0.94456,-8.92173 -2.8346,-26.76948 -3.78009,-35.69554 0.76264,-5.51005 2.28703,-16.52797 3.04887,-22.03656 1.88878,-4.22704 5.66636,-12.682905 7.55517,-16.911736 2.62604,3.688642 7.87291,11.058816 10.49799,14.746326 3.21948,5.26926 9.65339,15.79982 12.87272,21.06916 4.18284,1.53636 12.54432,4.60718 16.72296,6.14166 -2.52521,-2.55816 -7.57856,-7.67743 -10.10672,-10.23857 -1.38296,-2.37001 -4.14626,-7.10517 -5.53024,-9.47655 -1.75304,-3.38159 -5.25437,-10.13509 -7.00739,-13.516124 -1.48372,-2.426273 -4.44842,-7.274008 -5.93288,-9.701148 -2.66398,-2.681493 -7.99536,-8.047947 -10.66278,-10.732881 -1.59777,-5.364941 -4.79677,-16.098264 -6.398,-21.46664 1.06789,0.245746 3.20029,0.733805 4.26475,0.976119 3.02954,2.394876 9.08294,7.180036 12.11183,9.574283 3.58057,4.61 10.7358,13.822552 14.31559,18.431696 3.95141,4.464952 11.85116,13.391457 15.79949,17.852995 -2.26439,-5.341139 -6.79635,-16.030214 -9.06392,-21.378128 -4.77436,-6.367689 -14.31807,-19.096198 -19.08737,-25.456965 -2.98385,-1.583813 -8.95505,-4.754867 -11.94237,-6.342115 -3.94332,-1.950326 -11.8341,-5.853476 -15.78155,-7.80629 C 112.93979,34.153157 112.08682,17.326475 111.65968,8.9089954 107.07407,8.8180429 97.905787,8.6355468 93.319058,8.5439182 Z" /></g></svg>
